<svg height="512" viewBox="0 0 64 64" width="512" xmlns="http://www.w3.org/2000/svg"><g id="File_system" data-name="File system"><path d="m60 33h-56v24a3 3 0 0 0 3 3h50a3 3 0 0 0 3-3zm-18.49 6.633-1.1 3.315a3 3 0 0 1 -2.851 2.052h-11.118a3 3 0 0 1 -2.841-2.051l-1.11-3.317a2 2 0 0 1 1.897-2.632h15.226a2 2 0 0 1 1.9 2.633z"/><path d="m25.493 42.316a1 1 0 0 0 .948.684h11.118a1 1 0 0 0 .948-.684l1.105-3.316h-15.225z"/><path d="m49.192 8h-34.384l-1.38 5h37.144z"/><path d="m51.477 4h-38.954a1 1 0 0 0 -.964.734l-7.246 26.266h55.374l-7.246-26.266a1 1 0 0 0 -.964-.734zm5.065 24.606a1 1 0 0 1 -.8.394h-47.489a1 1 0 0 1 -.964-1.266l5.793-21a1 1 0 0 1 .964-.734h35.908a1 1 0 0 1 .964.734l5.793 21a1 1 0 0 1 -.169.872z"/><path d="m9.566 27h44.868l-1.379-5h-42.11z"/><path d="m11.497 20h41.006l-1.379-5h-38.248z"/></g></svg>